<svg width="280" height="88" viewBox="0 0 280 88" fill="none" xmlns="http://www.w3.org/2000/svg">
<path d="M61.5431 5.76247H44.1405L14.2909 42.1813V5.76247H0V86.437H14.2909V61.8889L24.6634 49.442L45.9845 86.437H62.4651L34.3443 38.0323L61.5431 5.76247Z" fill="black"/>
<path d="M115.23 86.437V50.5944C115.23 35.151 107.97 25.7006 91.1433 25.7006C82.6149 25.7006 73.5102 28.1208 66.4799 31.5783L70.2832 42.066C75.3541 39.4153 81.9234 36.8798 88.6078 36.8798C97.7125 36.8798 101.285 41.7203 101.285 49.7877V51.1707C96.9058 50.2487 93.2178 49.903 90.1061 49.903C77.5439 49.903 63.9445 54.5129 63.9445 69.2648C63.9445 81.7118 74.2017 87.82 85.2656 87.82C92.0653 87.82 97.8278 85.976 102.092 80.905L102.783 86.437H115.23ZM101.285 71.5698C97.2515 75.0273 92.9873 77.4475 87.8011 77.4475C82.3844 77.4475 77.6591 74.7968 77.6591 68.8038C77.6591 61.0821 85.6113 59.0077 92.1805 59.0077C94.8313 59.0077 97.7125 59.3534 101.285 60.1601V71.5698Z" fill="black"/>
<path d="M141.332 86.437V27.0836H127.387V86.437H141.332ZM141.332 17.4026V4.37948H127.387V17.4026H141.332Z" fill="black"/>
<path d="M154.065 0V86.437H166.742L167.434 79.522C171.813 85.2845 179.42 87.82 185.874 87.82C202.815 87.82 214.571 73.1833 214.571 56.9332C214.571 39.5305 202.354 25.7006 186.104 25.7006C179.766 25.7006 172.39 28.2361 168.01 33.8833V0H154.065ZM168.01 47.137C171.352 40.683 177.806 37.917 183.454 37.917C193.826 37.917 200.395 46.9065 200.395 56.5874C200.395 65.6921 194.863 75.6036 183.223 75.6036C177.691 75.6036 172.044 73.2986 168.01 68.1123V47.137Z" fill="black"/>
<path d="M249.228 25.7006C231.48 25.7006 218.457 39.4153 218.457 56.7027C218.457 74.1053 231.48 87.82 249.228 87.82C266.977 87.82 280 74.1053 280 56.7027C280 39.4153 266.977 25.7006 249.228 25.7006ZM265.824 56.7027C265.824 67.1904 258.909 75.6036 249.228 75.6036C239.547 75.6036 232.633 67.1904 232.633 56.7027C232.633 46.3302 239.547 37.917 249.228 37.917C258.909 37.917 265.824 46.3302 265.824 56.7027Z" fill="black"/>
</svg>
