<svg width="150" height="627" viewBox="0 0 150 627" fill="none" xmlns="http://www.w3.org/2000/svg">
<path d="M133 613.227V614.227H134V613.227H133ZM133 526.432H134V525.432H133V526.432ZM111.795 526.432V525.432H110.795V526.432H111.795ZM111.795 587.932V588.932H112.795V587.932H111.795ZM-6.63637 587.932V586.932H-7.63637V587.932H-6.63637ZM-6.63637 613.227H-7.63637V614.227H-6.63637V613.227ZM134 613.227V526.432H132V613.227H134ZM133 525.432H111.795V527.432H133V525.432ZM110.795 526.432V587.932H112.795V526.432H110.795ZM111.795 586.932H-6.63637V588.932H111.795V586.932ZM-7.63637 587.932L-7.63637 613.227H-5.63637L-5.63637 587.932H-7.63637ZM-6.63637 614.227H133V612.227H-6.63637V614.227ZM-6.63637 492.324V491.324H-7.63637V492.324H-6.63637ZM-6.63637 511.96H-7.63637V512.96H-6.63637V511.96ZM34.5454 521.301L33.9925 522.134L34.8344 522.693L35.3843 521.845L34.5454 521.301ZM41.9773 509.847L42.8162 510.391L43.2165 509.774L42.7468 509.208L41.9773 509.847ZM-7.63637 492.324L-7.63637 511.96H-5.63637V492.324H-7.63637ZM-6.63637 512.96H7.40909V510.96H-6.63637V512.96ZM7.40909 512.96C18.2357 512.96 26.5601 517.202 33.9925 522.134L35.0984 520.468C27.5308 515.446 18.8097 510.96 7.40909 510.96V512.96ZM35.3843 521.845L42.8162 510.391L41.1384 509.302L33.7066 520.757L35.3843 521.845ZM42.7468 509.208C34.2707 498.995 19.6852 491.324 7.27272 491.324V493.324C18.9966 493.324 33.0475 500.653 41.2078 510.485L42.7468 509.208ZM7.27272 491.324H-6.63637V493.324H7.27272V491.324ZM63.1818 345.33C40.409 345.33 22.2176 352.281 9.70996 363.948C-2.80119 375.617 -9.54546 391.931 -9.54546 410.489H-7.54546C-7.54546 392.433 -0.994274 376.667 11.0741 365.41C23.146 354.15 40.8182 347.33 63.1818 347.33V345.33ZM-9.54546 410.489C-9.54546 429.08 -2.80143 445.394 9.71023 457.055C22.2182 468.713 40.4097 475.648 63.1818 475.648V473.648C40.8176 473.648 23.1455 466.844 11.0739 455.592C-0.994036 444.345 -7.54546 428.579 -7.54546 410.489H-9.54546ZM63.1818 475.648C85.9202 475.648 104.111 468.713 116.628 457.056C129.148 445.395 135.909 429.081 135.909 410.489H133.909C133.909 428.578 127.341 444.344 115.264 455.592C103.184 466.844 85.5116 473.648 63.1818 473.648V475.648ZM135.909 410.489C135.909 391.931 129.165 375.617 116.654 363.948C104.146 352.281 85.9546 345.33 63.1818 345.33V347.33C85.5454 347.33 103.218 354.15 115.29 365.41C127.358 376.667 133.909 392.433 133.909 410.489H135.909ZM63.1818 372.761C78.9109 372.761 90.917 376.711 98.9715 383.357C107.006 389.986 111.205 399.374 111.205 410.489H113.205C113.205 398.83 108.778 388.855 100.244 381.814C91.7307 374.789 79.2254 370.761 63.1818 370.761V372.761ZM111.205 410.489C111.205 421.568 107.006 430.958 98.9711 437.596C90.9161 444.25 78.9099 448.216 63.1818 448.216V450.216C79.2264 450.216 91.7316 446.17 100.245 439.137C108.778 432.088 113.205 422.113 113.205 410.489H111.205ZM63.1818 448.216C47.4537 448.216 35.4475 444.25 27.3926 437.596C19.3576 430.958 15.1591 421.568 15.1591 410.489H13.1591C13.1591 422.113 17.5856 432.088 26.1188 439.137C34.632 446.17 47.1372 450.216 63.1818 450.216V448.216ZM15.1591 410.489C15.1591 399.374 19.358 389.986 27.3921 383.357C35.4467 376.711 47.4527 372.761 63.1818 372.761V370.761C47.1382 370.761 34.6329 374.789 26.1193 381.814C17.5852 388.855 13.1591 398.83 13.1591 410.489H15.1591ZM133 323.506V324.506H134V323.506H133ZM133 298.824H134V297.824H133V298.824ZM50.1591 263.778L51.1108 264.085L51.5324 262.778H50.1591V263.778ZM27.4545 263.778V262.778H26.62L26.4707 263.6L27.4545 263.778ZM45.7273 298.483H46.7273V297.749L46.0274 297.529L45.7273 298.483ZM45.7273 299.574V300.574H46.7273V299.574H45.7273ZM28.2727 299.574V298.574H27.2727V299.574H28.2727ZM28.2727 323.506H27.2727V324.506H28.2727V323.506ZM134 323.506V298.824H132V323.506H134ZM133 297.824H71.4318V299.824H133V297.824ZM71.4318 297.824C58.7312 297.824 49.7273 288.292 49.7273 275.233H47.7273C47.7273 289.31 57.5415 299.824 71.4318 299.824V297.824ZM49.7273 275.233C49.7273 271.141 50.4707 266.07 51.1108 264.085L49.2074 263.471C48.4838 265.714 47.7273 271.007 47.7273 275.233H49.7273ZM50.1591 262.778H27.4545V264.778H50.1591V262.778ZM26.4707 263.6C26.0475 265.927 25.7727 269.877 25.7727 272.642H27.7727C27.7727 269.953 28.0434 266.13 28.4384 263.957L26.4707 263.6ZM25.7727 272.642C25.7727 285.062 32.8588 295.483 45.4272 299.437L46.0274 297.529C34.323 293.847 27.7727 284.222 27.7727 272.642H25.7727ZM44.7273 298.483V299.574H46.7273V298.483H44.7273ZM45.7273 298.574H28.2727V300.574H45.7273V298.574ZM27.2727 299.574V323.506H29.2727V299.574H27.2727ZM28.2727 324.506H133V322.506H28.2727V324.506ZM104.909 159.784L105.142 158.812L104.042 158.548L103.915 159.672L104.909 159.784ZM102.318 182.83L101.324 182.718L101.238 183.491L101.965 183.765L102.318 182.83ZM87.3864 231.716H86.3864V232.727L87.3978 232.716L87.3864 231.716ZM87.3864 158.761H88.3864V157.761H87.3864V158.761ZM70.75 231.648L70.694 232.646L71.75 232.705V231.648H70.75ZM70.75 182.42H71.75V181.411L70.7404 181.421L70.75 182.42ZM14.5 216.784L14.0599 217.682L15.5 218.388V216.784H14.5ZM14.5 198.307H15.5V197.774L15.0576 197.477L14.5 198.307ZM-16.6591 177.375L-16.1015 176.545L-17.6591 175.499V177.375H-16.6591ZM-16.6591 201.511H-17.6591V202.135L-17.0992 202.409L-16.6591 201.511ZM136.045 205.33C136.045 180.589 123.913 163.311 105.142 158.812L104.676 160.757C122.314 164.984 134.045 181.252 134.045 205.33H136.045ZM103.915 159.672L101.324 182.718L103.312 182.941L105.903 159.896L103.915 159.672ZM101.965 183.765C110.344 186.923 114.818 194.656 114.818 204.989H116.818C116.818 194.049 112.02 185.418 102.671 181.894L101.965 183.765ZM114.818 204.989C114.818 212.74 112.273 219.093 107.635 223.536C102.991 227.985 96.148 230.616 87.375 230.716L87.3978 232.716C96.5566 232.611 103.929 229.856 109.018 224.981C114.113 220.1 116.818 213.192 116.818 204.989H114.818ZM88.3864 231.716V158.761H86.3864V231.716H88.3864ZM87.3864 157.761H79.8182V159.761H87.3864V157.761ZM79.8182 157.761C61.2385 157.761 47.7321 163.351 38.8708 172.326C30.0158 181.294 25.9091 193.533 25.9091 206.625H27.9091C27.9091 193.944 31.8819 182.251 40.294 173.731C48.6997 165.217 61.6479 159.761 79.8182 159.761V157.761ZM25.9091 206.625C25.9091 221.884 31.5172 234.553 41.2891 243.4C51.0514 252.239 64.8913 257.193 81.25 257.193V255.193C65.2905 255.193 51.9599 250.363 42.6314 241.918C33.3124 233.481 27.9091 221.366 27.9091 206.625H25.9091ZM81.25 257.193C97.875 257.193 111.59 252.31 121.156 243.328C130.73 234.34 136.045 221.343 136.045 205.33H134.045C134.045 220.884 128.895 233.319 119.787 241.87C110.672 250.428 97.4886 255.193 81.25 255.193V257.193ZM70.806 230.649C57.9036 229.925 47.1364 220.415 47.1364 206.284H45.1364C45.1364 221.608 56.8691 231.87 70.694 232.646L70.806 230.649ZM47.1364 206.284C47.1364 199.448 49.6284 193.784 53.7901 189.808C57.957 185.828 63.857 183.486 70.7596 183.42L70.7404 181.421C63.393 181.491 56.9861 183.99 52.4087 188.362C47.8261 192.739 45.1364 198.938 45.1364 206.284H47.1364ZM69.75 182.42V231.648H71.75V182.42H69.75ZM15.5 216.784V198.307H13.5V216.784H15.5ZM15.0576 197.477L-16.1015 176.545L-17.2167 178.205L13.9424 199.137L15.0576 197.477ZM-17.6591 177.375L-17.6591 201.511H-15.6591L-15.6591 177.375H-17.6591ZM-17.0992 202.409L14.0599 217.682L14.9401 215.886L-16.219 200.613L-17.0992 202.409ZM118.614 76.9943H117.614V77.606L118.158 77.8846L118.614 76.9943ZM118.614 76.1761V75.1761H117.614V76.1761H118.614ZM133 76.1761V77.1761H134V76.1761H133ZM133 52.4489H134V51.4489H133V52.4489ZM55.8182 139.381L55.5435 140.342L56.6469 140.657L56.8082 139.521L55.8182 139.381ZM59.0909 116.335L60.081 116.476L60.1972 115.657L59.4152 115.389L59.0909 116.335ZM71.7727 103.04L70.7784 103.146L70.7784 103.147L71.7727 103.04ZM88.2045 99.6989L87.2138 99.8345L87.2145 99.8394L88.2045 99.6989ZM83.0909 77.0625V76.0625H80.9964L82.3133 77.6912L83.0909 77.0625ZM136.114 107.744C136.114 90.9544 128.214 80.7828 119.069 76.1041L118.158 77.8846C126.604 82.2058 134.114 91.6706 134.114 107.744H136.114ZM119.614 76.9943V76.1761H117.614V76.9943H119.614ZM118.614 77.1761H133V75.1761H118.614V77.1761ZM134 76.1761V52.4489H132V76.1761H134ZM133 51.4489H62.9091V53.4489H133V51.4489ZM62.9091 51.4489C48.7484 51.4489 39.4339 57.2455 33.7017 65.6674C28.0082 74.0326 25.9091 84.8926 25.9091 94.9943H27.9091C27.9091 85.1188 29.9691 74.7061 35.3551 66.7928C40.7024 58.9363 49.3879 53.4489 62.9091 53.4489V51.4489ZM25.9091 94.9943C25.9091 117.318 35.8978 134.729 55.5435 140.342L56.0929 138.419C37.5568 133.123 27.9091 116.716 27.9091 94.9943H25.9091ZM56.8082 139.521L60.081 116.476L58.1008 116.195L54.8281 139.24L56.8082 139.521ZM59.4152 115.389C52.692 113.084 46.7955 106.533 46.7955 94.858H44.7955C44.7955 107.319 51.1717 114.677 58.7666 117.281L59.4152 115.389ZM46.7955 94.858C46.7955 89.2908 48.2199 85.1334 50.751 82.3749C53.2702 79.6296 57.014 78.1307 61.9545 78.1307V76.1307C56.5996 76.1307 52.2639 77.7681 49.2774 81.0228C46.3028 84.2644 44.7955 88.9705 44.7955 94.858H46.7955ZM61.9545 78.1307H62.3636V76.1307H61.9545V78.1307ZM62.3636 78.1307C63.9463 78.1307 65.0325 78.5378 65.8664 79.313C66.7342 80.1198 67.4376 81.425 68.026 83.437C69.2122 87.4934 69.7826 93.8403 70.7784 103.146L72.767 102.933C71.7856 93.7619 71.1968 87.1543 69.9456 82.8755C69.3152 80.7198 68.4803 79.0123 67.2281 77.8482C65.9419 76.6525 64.3265 76.1307 62.3636 76.1307V78.1307ZM70.7784 103.147C71.8725 113.335 73.9523 123.47 78.8227 131.073C83.746 138.76 91.4789 143.79 103.614 143.79V141.79C92.1574 141.79 85.0608 137.104 80.5068 129.995C75.9 122.803 73.8547 113.062 72.767 102.933L70.7784 103.147ZM103.614 143.79C114.174 143.79 122.339 139.915 127.849 133.405C133.34 126.916 136.114 117.905 136.114 107.744H134.114C134.114 117.561 131.433 126.073 126.322 132.113C121.229 138.131 113.644 141.79 103.614 141.79V143.79ZM115.977 101.335C115.977 106.348 114.83 110.53 112.687 113.432C110.572 116.296 107.432 117.994 103.205 117.994V119.994C108.046 119.994 111.792 118.011 114.296 114.62C116.772 111.266 117.977 106.618 117.977 101.335H115.977ZM103.205 117.994C98.82 117.994 95.7598 116.115 93.5624 112.922C91.3238 109.668 89.971 105.027 89.1946 99.5583L87.2145 99.8394C88.0063 105.416 89.4149 110.422 91.9148 114.055C94.4561 117.749 98.1118 119.994 103.205 119.994V117.994ZM89.1953 99.5633C88.7537 96.3361 88.1191 91.4474 87.2694 86.9671C86.8446 84.7269 86.3619 82.5664 85.8159 80.7523C85.2813 78.9763 84.649 77.3991 83.8685 76.4338L82.3133 77.6912C82.8283 78.3282 83.3721 79.5721 83.9007 81.3287C84.418 83.0472 84.8855 85.131 85.3044 87.3397C86.1422 91.7571 86.769 96.5844 87.2138 99.8344L89.1953 99.5633ZM83.0909 78.0625H95.4318V76.0625H83.0909V78.0625ZM95.4318 78.0625C106.475 78.0625 115.977 86.9576 115.977 101.335H117.977C117.977 85.9855 107.707 76.0625 95.4318 76.0625V78.0625ZM-6.63637 2.94885V1.94885H-7.63637V2.94885H-6.63637ZM-6.63637 27.6307H-7.63637V28.6307H-6.63637V27.6307ZM133 27.6307V28.6307H134V27.6307H133ZM133 2.94885H134V1.94885H133V2.94885ZM-7.63637 2.94885L-7.63637 27.6307H-5.63637L-5.63637 2.94885H-7.63637ZM-6.63637 28.6307H133V26.6307H-6.63637V28.6307ZM134 27.6307V2.94885H132V27.6307H134ZM133 1.94885H-6.63637V3.94885H133V1.94885Z" fill="#AAAAAA"/>
</svg>
