<svg width="137" height="614" viewBox="0 0 137 614" fill="none" xmlns="http://www.w3.org/2000/svg">
<path d="M133 612.227V613.227H134V612.227H133ZM133 525.432H134V524.432H133V525.432ZM111.795 525.432V524.432H110.795V525.432H111.795ZM111.795 586.932V587.932H112.795V586.932H111.795ZM-6.63637 586.932V585.932H-7.63637V586.932H-6.63637ZM-6.63637 612.227H-7.63637V613.227H-6.63637V612.227ZM134 612.227V525.432H132V612.227H134ZM133 524.432H111.795V526.432H133V524.432ZM110.795 525.432V586.932H112.795V525.432H110.795ZM111.795 585.932H-6.63637V587.932H111.795V585.932ZM-7.63637 586.932L-7.63637 612.227H-5.63637L-5.63637 586.932H-7.63637ZM-6.63637 613.227H133V611.227H-6.63637V613.227ZM-6.63637 491.324V490.324H-7.63637V491.324H-6.63637ZM-6.63637 510.96H-7.63637V511.96H-6.63637V510.96ZM34.5454 520.301L33.9925 521.134L34.8344 521.693L35.3843 520.845L34.5454 520.301ZM41.9773 508.847L42.8162 509.391L43.2165 508.774L42.7468 508.208L41.9773 508.847ZM-7.63637 491.324L-7.63637 510.96H-5.63637V491.324H-7.63637ZM-6.63637 511.96H7.40909V509.96H-6.63637V511.96ZM7.40909 511.96C18.2357 511.96 26.5601 516.202 33.9925 521.134L35.0984 519.468C27.5308 514.446 18.8097 509.96 7.40909 509.96V511.96ZM35.3843 520.845L42.8162 509.391L41.1384 508.302L33.7066 519.757L35.3843 520.845ZM42.7468 508.208C34.2707 497.995 19.6852 490.324 7.27272 490.324V492.324C18.9966 492.324 33.0475 499.653 41.2078 509.485L42.7468 508.208ZM7.27272 490.324H-6.63637V492.324H7.27272V490.324ZM63.1818 344.33C40.409 344.33 22.2176 351.281 9.70996 362.948C-2.80119 374.617 -9.54546 390.931 -9.54546 409.489H-7.54546C-7.54546 391.433 -0.994274 375.667 11.0741 364.41C23.146 353.15 40.8182 346.33 63.1818 346.33V344.33ZM-9.54546 409.489C-9.54546 428.08 -2.80143 444.394 9.71023 456.055C22.2182 467.713 40.4097 474.648 63.1818 474.648V472.648C40.8176 472.648 23.1455 465.844 11.0739 454.592C-0.994036 443.345 -7.54546 427.579 -7.54546 409.489H-9.54546ZM63.1818 474.648C85.9202 474.648 104.111 467.713 116.628 456.056C129.148 444.395 135.909 428.081 135.909 409.489H133.909C133.909 427.578 127.341 443.344 115.264 454.592C103.184 465.844 85.5116 472.648 63.1818 472.648V474.648ZM135.909 409.489C135.909 390.931 129.165 374.617 116.654 362.948C104.146 351.281 85.9546 344.33 63.1818 344.33V346.33C85.5454 346.33 103.218 353.15 115.29 364.41C127.358 375.667 133.909 391.433 133.909 409.489H135.909ZM63.1818 371.761C78.9109 371.761 90.917 375.711 98.9715 382.357C107.006 388.986 111.205 398.374 111.205 409.489H113.205C113.205 397.83 108.778 387.855 100.244 380.814C91.7307 373.789 79.2254 369.761 63.1818 369.761V371.761ZM111.205 409.489C111.205 420.568 107.006 429.958 98.9711 436.596C90.9161 443.25 78.9099 447.216 63.1818 447.216V449.216C79.2264 449.216 91.7316 445.17 100.245 438.137C108.778 431.088 113.205 421.113 113.205 409.489H111.205ZM63.1818 447.216C47.4537 447.216 35.4475 443.25 27.3926 436.596C19.3576 429.958 15.1591 420.568 15.1591 409.489H13.1591C13.1591 421.113 17.5856 431.088 26.1188 438.137C34.632 445.17 47.1372 449.216 63.1818 449.216V447.216ZM15.1591 409.489C15.1591 398.374 19.358 388.986 27.3921 382.357C35.4467 375.711 47.4527 371.761 63.1818 371.761V369.761C47.1382 369.761 34.6329 373.789 26.1193 380.814C17.5852 387.855 13.1591 397.83 13.1591 409.489H15.1591ZM133 322.506V323.506H134V322.506H133ZM133 297.824H134V296.824H133V297.824ZM50.1591 262.778L51.1108 263.085L51.5324 261.778H50.1591V262.778ZM27.4545 262.778V261.778H26.62L26.4707 262.6L27.4545 262.778ZM45.7273 297.483H46.7273V296.749L46.0274 296.529L45.7273 297.483ZM45.7273 298.574V299.574H46.7273V298.574H45.7273ZM28.2727 298.574V297.574H27.2727V298.574H28.2727ZM28.2727 322.506H27.2727V323.506H28.2727V322.506ZM134 322.506V297.824H132V322.506H134ZM133 296.824H71.4318V298.824H133V296.824ZM71.4318 296.824C58.7312 296.824 49.7273 287.292 49.7273 274.233H47.7273C47.7273 288.31 57.5415 298.824 71.4318 298.824V296.824ZM49.7273 274.233C49.7273 270.141 50.4707 265.07 51.1108 263.085L49.2074 262.471C48.4838 264.714 47.7273 270.007 47.7273 274.233H49.7273ZM50.1591 261.778H27.4545V263.778H50.1591V261.778ZM26.4707 262.6C26.0475 264.927 25.7727 268.877 25.7727 271.642H27.7727C27.7727 268.953 28.0434 265.13 28.4384 262.957L26.4707 262.6ZM25.7727 271.642C25.7727 284.062 32.8588 294.483 45.4272 298.437L46.0274 296.529C34.323 292.847 27.7727 283.222 27.7727 271.642H25.7727ZM44.7273 297.483V298.574H46.7273V297.483H44.7273ZM45.7273 297.574H28.2727V299.574H45.7273V297.574ZM27.2727 298.574V322.506H29.2727V298.574H27.2727ZM28.2727 323.506H133V321.506H28.2727V323.506ZM104.909 158.784L105.142 157.812L104.042 157.548L103.915 158.672L104.909 158.784ZM102.318 181.83L101.324 181.718L101.238 182.491L101.965 182.765L102.318 181.83ZM87.3864 230.716H86.3864V231.727L87.3978 231.716L87.3864 230.716ZM87.3864 157.761H88.3864V156.761H87.3864V157.761ZM70.75 230.648L70.694 231.646L71.75 231.705V230.648H70.75ZM70.75 181.42H71.75V180.411L70.7404 180.421L70.75 181.42ZM14.5 215.784L14.0599 216.682L15.5 217.388V215.784H14.5ZM14.5 197.307H15.5V196.774L15.0576 196.477L14.5 197.307ZM-16.6591 176.375L-16.1015 175.545L-17.6591 174.499V176.375H-16.6591ZM-16.6591 200.511H-17.6591V201.135L-17.0992 201.409L-16.6591 200.511ZM136.045 204.33C136.045 179.589 123.913 162.311 105.142 157.812L104.676 159.757C122.314 163.984 134.045 180.252 134.045 204.33H136.045ZM103.915 158.672L101.324 181.718L103.312 181.941L105.903 158.896L103.915 158.672ZM101.965 182.765C110.344 185.923 114.818 193.656 114.818 203.989H116.818C116.818 193.049 112.02 184.418 102.671 180.894L101.965 182.765ZM114.818 203.989C114.818 211.74 112.273 218.093 107.635 222.536C102.991 226.985 96.148 229.616 87.375 229.716L87.3978 231.716C96.5566 231.611 103.929 228.856 109.018 223.981C114.113 219.1 116.818 212.192 116.818 203.989H114.818ZM88.3864 230.716V157.761H86.3864V230.716H88.3864ZM87.3864 156.761H79.8182V158.761H87.3864V156.761ZM79.8182 156.761C61.2385 156.761 47.7321 162.351 38.8708 171.326C30.0158 180.294 25.9091 192.533 25.9091 205.625H27.9091C27.9091 192.944 31.8819 181.251 40.294 172.731C48.6997 164.217 61.6479 158.761 79.8182 158.761V156.761ZM25.9091 205.625C25.9091 220.884 31.5172 233.553 41.2891 242.4C51.0514 251.239 64.8913 256.193 81.25 256.193V254.193C65.2905 254.193 51.9599 249.363 42.6314 240.918C33.3124 232.481 27.9091 220.366 27.9091 205.625H25.9091ZM81.25 256.193C97.875 256.193 111.59 251.31 121.156 242.328C130.73 233.34 136.045 220.343 136.045 204.33H134.045C134.045 219.884 128.895 232.319 119.787 240.87C110.672 249.428 97.4886 254.193 81.25 254.193V256.193ZM70.806 229.649C57.9036 228.925 47.1364 219.415 47.1364 205.284H45.1364C45.1364 220.608 56.8691 230.87 70.694 231.646L70.806 229.649ZM47.1364 205.284C47.1364 198.448 49.6284 192.784 53.7901 188.808C57.957 184.828 63.857 182.486 70.7596 182.42L70.7404 180.421C63.393 180.491 56.9861 182.99 52.4087 187.362C47.8261 191.739 45.1364 197.938 45.1364 205.284H47.1364ZM69.75 181.42V230.648H71.75V181.42H69.75ZM15.5 215.784V197.307H13.5V215.784H15.5ZM15.0576 196.477L-16.1015 175.545L-17.2167 177.205L13.9424 198.137L15.0576 196.477ZM-17.6591 176.375L-17.6591 200.511H-15.6591L-15.6591 176.375H-17.6591ZM-17.0992 201.409L14.0599 216.682L14.9401 214.886L-16.219 199.613L-17.0992 201.409ZM118.614 75.9943H117.614V76.606L118.158 76.8846L118.614 75.9943ZM118.614 75.1761V74.1761H117.614V75.1761H118.614ZM133 75.1761V76.1761H134V75.1761H133ZM133 51.4489H134V50.4489H133V51.4489ZM55.8182 138.381L55.5435 139.342L56.6469 139.657L56.8082 138.521L55.8182 138.381ZM59.0909 115.335L60.081 115.476L60.1972 114.657L59.4152 114.389L59.0909 115.335ZM71.7727 102.04L70.7784 102.146L70.7784 102.147L71.7727 102.04ZM88.2045 98.6989L87.2138 98.8345L87.2145 98.8394L88.2045 98.6989ZM83.0909 76.0625V75.0625H80.9964L82.3133 76.6912L83.0909 76.0625ZM136.114 106.744C136.114 89.9544 128.214 79.7828 119.069 75.1041L118.158 76.8846C126.604 81.2058 134.114 90.6706 134.114 106.744H136.114ZM119.614 75.9943V75.1761H117.614V75.9943H119.614ZM118.614 76.1761H133V74.1761H118.614V76.1761ZM134 75.1761V51.4489H132V75.1761H134ZM133 50.4489H62.9091V52.4489H133V50.4489ZM62.9091 50.4489C48.7484 50.4489 39.4339 56.2455 33.7017 64.6674C28.0082 73.0326 25.9091 83.8926 25.9091 93.9943H27.9091C27.9091 84.1188 29.9691 73.7061 35.3551 65.7928C40.7024 57.9363 49.3879 52.4489 62.9091 52.4489V50.4489ZM25.9091 93.9943C25.9091 116.318 35.8978 133.729 55.5435 139.342L56.0929 137.419C37.5568 132.123 27.9091 115.716 27.9091 93.9943H25.9091ZM56.8082 138.521L60.081 115.476L58.1008 115.195L54.8281 138.24L56.8082 138.521ZM59.4152 114.389C52.692 112.084 46.7955 105.533 46.7955 93.858H44.7955C44.7955 106.319 51.1717 113.677 58.7666 116.281L59.4152 114.389ZM46.7955 93.858C46.7955 88.2908 48.2199 84.1334 50.751 81.3749C53.2702 78.6296 57.014 77.1307 61.9545 77.1307V75.1307C56.5996 75.1307 52.2639 76.7681 49.2774 80.0228C46.3028 83.2644 44.7955 87.9705 44.7955 93.858H46.7955ZM61.9545 77.1307H62.3636V75.1307H61.9545V77.1307ZM62.3636 77.1307C63.9463 77.1307 65.0325 77.5378 65.8664 78.313C66.7342 79.1198 67.4376 80.425 68.026 82.437C69.2122 86.4934 69.7826 92.8403 70.7784 102.146L72.767 101.933C71.7856 92.7619 71.1968 86.1543 69.9456 81.8755C69.3152 79.7198 68.4803 78.0123 67.2281 76.8482C65.9419 75.6525 64.3265 75.1307 62.3636 75.1307V77.1307ZM70.7784 102.147C71.8725 112.335 73.9523 122.47 78.8227 130.073C83.746 137.76 91.4789 142.79 103.614 142.79V140.79C92.1574 140.79 85.0608 136.104 80.5068 128.995C75.9 121.803 73.8547 112.062 72.767 101.933L70.7784 102.147ZM103.614 142.79C114.174 142.79 122.339 138.915 127.849 132.405C133.34 125.916 136.114 116.905 136.114 106.744H134.114C134.114 116.561 131.433 125.073 126.322 131.113C121.229 137.131 113.644 140.79 103.614 140.79V142.79ZM115.977 100.335C115.977 105.348 114.83 109.53 112.687 112.432C110.572 115.296 107.432 116.994 103.205 116.994V118.994C108.046 118.994 111.792 117.011 114.296 113.62C116.772 110.266 117.977 105.618 117.977 100.335H115.977ZM103.205 116.994C98.82 116.994 95.7598 115.115 93.5624 111.922C91.3238 108.668 89.971 104.027 89.1946 98.5583L87.2145 98.8394C88.0063 104.416 89.4149 109.422 91.9148 113.055C94.4561 116.749 98.1118 118.994 103.205 118.994V116.994ZM89.1953 98.5633C88.7537 95.3361 88.1191 90.4474 87.2694 85.9671C86.8446 83.7269 86.3619 81.5664 85.8159 79.7523C85.2813 77.9763 84.649 76.3991 83.8685 75.4338L82.3133 76.6912C82.8283 77.3282 83.3721 78.5721 83.9007 80.3287C84.418 82.0472 84.8855 84.131 85.3044 86.3397C86.1422 90.7571 86.769 95.5844 87.2138 98.8344L89.1953 98.5633ZM83.0909 77.0625H95.4318V75.0625H83.0909V77.0625ZM95.4318 77.0625C106.475 77.0625 115.977 85.9576 115.977 100.335H117.977C117.977 84.9855 107.707 75.0625 95.4318 75.0625V77.0625ZM-6.63637 1.94885V0.948853H-7.63637V1.94885H-6.63637ZM-6.63637 26.6307H-7.63637V27.6307H-6.63637V26.6307ZM133 26.6307V27.6307H134V26.6307H133ZM133 1.94885H134V0.948853H133V1.94885ZM-7.63637 1.94885L-7.63637 26.6307H-5.63637L-5.63637 1.94885H-7.63637ZM-6.63637 27.6307H133V25.6307H-6.63637V27.6307ZM134 26.6307V1.94885H132V26.6307H134ZM133 0.948853H-6.63637V2.94885H133V0.948853Z" fill="#AAAAAA"/>
</svg>
